<?xml version="1.0" encoding="UTF-8"?>
<svg xmlns="http://www.w3.org/2000/svg" xmlns:xlink="http://www.w3.org/1999/xlink" stroke-dasharray="none" shape-rendering="auto" font-family="'Dialog'" width="616" text-rendering="auto" fill-opacity="1" contentScriptType="text/ecmascript" color-interpolation="auto" color-rendering="auto" preserveAspectRatio="xMidYMid meet" font-size="12" viewBox="0 0 616 490" fill="black" stroke="black" image-rendering="auto" stroke-miterlimit="10" zoomAndPan="magnify" version="1.0" stroke-linecap="square" stroke-linejoin="miter" contentStyleType="text/css" font-style="normal" height="490" stroke-width="1" stroke-dashoffset="0" font-weight="normal" stroke-opacity="1">
  <!--Generated by the Batik Graphics2D SVG Generator-->
  <defs id="genericDefs" />
  <g>
    <defs id="defs1">
      <clipPath clipPathUnits="userSpaceOnUse" id="clipPath1">
        <path d="M9 9 L115 9 L115 41 L9 41 L9 9 Z" />
      </clipPath>
      <clipPath clipPathUnits="userSpaceOnUse" id="clipPath2">
        <path d="M9 9 L120 9 L120 41 L9 41 L9 9 Z" />
      </clipPath>
      <clipPath clipPathUnits="userSpaceOnUse" id="clipPath3">
        <path d="M56 39 L68 39 L68 481 L56 481 L56 39 Z" />
      </clipPath>
      <clipPath clipPathUnits="userSpaceOnUse" id="clipPath4">
        <path d="M455 9 L607 9 L607 61 L455 61 L455 9 Z" />
      </clipPath>
      <clipPath clipPathUnits="userSpaceOnUse" id="clipPath5">
        <path d="M455 9 L611 9 L611 61 L455 61 L455 9 Z" />
      </clipPath>
      <clipPath clipPathUnits="userSpaceOnUse" id="clipPath6">
        <path d="M525 59 L537 59 L537 481 L525 481 L525 59 Z" />
      </clipPath>
      <clipPath clipPathUnits="userSpaceOnUse" id="clipPath7">
        <path d="M520 89 L542 89 L542 131 L520 131 L520 89 Z" />
      </clipPath>
      <clipPath clipPathUnits="userSpaceOnUse" id="clipPath8">
        <path d="M541 89 L600 89 L600 113 L541 113 L541 89 Z" />
      </clipPath>
      <clipPath clipPathUnits="userSpaceOnUse" id="clipPath9">
        <path d="M520 209 L542 209 L542 251 L520 251 L520 209 Z" />
      </clipPath>
      <clipPath clipPathUnits="userSpaceOnUse" id="clipPath10">
        <path d="M541 209 L600 209 L600 233 L541 233 L541 209 Z" />
      </clipPath>
      <clipPath clipPathUnits="userSpaceOnUse" id="clipPath11">
        <path d="M520 329 L542 329 L542 371 L520 371 L520 329 Z" />
      </clipPath>
      <clipPath clipPathUnits="userSpaceOnUse" id="clipPath12">
        <path d="M541 329 L600 329 L600 353 L541 353 L541 329 Z" />
      </clipPath>
      <clipPath clipPathUnits="userSpaceOnUse" id="clipPath13">
        <path d="M520 149 L542 149 L542 191 L520 191 L520 149 Z" />
      </clipPath>
      <clipPath clipPathUnits="userSpaceOnUse" id="clipPath14">
        <path d="M541 149 L585 149 L585 173 L541 173 L541 149 Z" />
      </clipPath>
      <clipPath clipPathUnits="userSpaceOnUse" id="clipPath15">
        <path d="M520 269 L542 269 L542 311 L520 311 L520 269 Z" />
      </clipPath>
      <clipPath clipPathUnits="userSpaceOnUse" id="clipPath16">
        <path d="M541 269 L585 269 L585 293 L541 293 L541 269 Z" />
      </clipPath>
      <clipPath clipPathUnits="userSpaceOnUse" id="clipPath17">
        <path d="M520 389 L542 389 L542 431 L520 431 L520 389 Z" />
      </clipPath>
      <clipPath clipPathUnits="userSpaceOnUse" id="clipPath18">
        <path d="M541 389 L585 389 L585 413 L541 413 L541 389 Z" />
      </clipPath>
      <clipPath clipPathUnits="userSpaceOnUse" id="clipPath19">
        <path d="M-1 -1 L617 -1 L617 491 L-1 491 L-1 -1 Z" />
      </clipPath>
      <clipPath clipPathUnits="userSpaceOnUse" id="clipPath20">
        <path d="M184 68 L405 68 L405 92 L184 92 L184 68 Z" />
      </clipPath>
      <clipPath clipPathUnits="userSpaceOnUse" id="clipPath21">
        <path d="M60 85 L72 85 L72 96 L60 96 L60 85 Z" />
      </clipPath>
      <clipPath clipPathUnits="userSpaceOnUse" id="clipPath22">
        <path d="M177 188 L411 188 L411 212 L177 212 L177 188 Z" />
      </clipPath>
      <clipPath clipPathUnits="userSpaceOnUse" id="clipPath23">
        <path d="M60 205 L72 205 L72 216 L60 216 L60 205 Z" />
      </clipPath>
      <clipPath clipPathUnits="userSpaceOnUse" id="clipPath24">
        <path d="M242 308 L346 308 L346 332 L242 332 L242 308 Z" />
      </clipPath>
      <clipPath clipPathUnits="userSpaceOnUse" id="clipPath25">
        <path d="M60 325 L72 325 L72 336 L60 336 L60 325 Z" />
      </clipPath>
      <clipPath clipPathUnits="userSpaceOnUse" id="clipPath26">
        <path d="M95 128 L493 128 L493 152 L95 152 L95 128 Z" />
      </clipPath>
      <clipPath clipPathUnits="userSpaceOnUse" id="clipPath27">
        <path d="M512 145 L524 145 L524 156 L512 156 L512 145 Z" />
      </clipPath>
      <clipPath clipPathUnits="userSpaceOnUse" id="clipPath28">
        <path d="M155 248 L434 248 L434 272 L155 272 L155 248 Z" />
      </clipPath>
      <clipPath clipPathUnits="userSpaceOnUse" id="clipPath29">
        <path d="M512 265 L524 265 L524 276 L512 276 L512 265 Z" />
      </clipPath>
      <clipPath clipPathUnits="userSpaceOnUse" id="clipPath30">
        <path d="M89 368 L499 368 L499 392 L89 392 L89 368 Z" />
      </clipPath>
      <clipPath clipPathUnits="userSpaceOnUse" id="clipPath31">
        <path d="M512 385 L524 385 L524 396 L512 396 L512 385 Z" />
      </clipPath>
    </defs>
    <g fill="rgb(238,201,142)" font-family="'Ubuntu'" stroke-linejoin="round" stroke="rgb(238,201,142)" stroke-width="0" stroke-miterlimit="0">
      <rect x="10" y="10" clip-path="url(#clipPath1)" width="104" height="30" stroke="none" />
    </g>
    <g stroke-width="0.1" font-family="'Ubuntu'" stroke-linecap="butt">
      <rect x="10" y="10" clip-path="url(#clipPath1)" fill="none" width="103" height="29" />
      <text x="31" font-size="19" y="32" clip-path="url(#clipPath2)" stroke="none" xml:space="preserve">System</text>
      <line clip-path="url(#clipPath3)" fill="none" x1="61" x2="61" y1="40" y2="480" stroke-dasharray="10,10" stroke-width="1.1" />
    </g>
    <g stroke-linecap="butt" fill="rgb(255,245,181)" font-family="'Ubuntu'" stroke-dasharray="10,10" stroke="rgb(255,245,181)" stroke-width="1.1">
      <rect x="456" y="10" clip-path="url(#clipPath4)" width="150" height="50" stroke="none" />
    </g>
    <g stroke-width="0.1" font-family="'Ubuntu'" stroke-linecap="butt">
      <rect x="456" y="10" clip-path="url(#clipPath4)" fill="none" width="149" height="49" />
      <text x="506" font-size="19" y="31" clip-path="url(#clipPath5)" stroke="none" xml:space="preserve">user1</text>
      <text x="493" font-size="19" y="53" clip-path="url(#clipPath5)" stroke="none" xml:space="preserve">: actUser</text>
      <line clip-path="url(#clipPath6)" fill="none" x1="530" x2="530" y1="60" y2="480" stroke-dasharray="10,10" stroke-width="1.1" />
    </g>
    <g stroke-linecap="butt" fill="rgb(39,76,114)" font-family="'Ubuntu'" stroke-dasharray="10,10" stroke="rgb(39,76,114)" stroke-width="1.1">
      <rect x="521" y="90" clip-path="url(#clipPath7)" width="20" height="40" stroke="none" />
      <rect x="521" y="90" clip-path="url(#clipPath7)" fill="none" width="19" stroke-dasharray="none" height="39" stroke-width="0.1" />
    </g>
    <g stroke-width="0.1" font-size="19" font-family="'Ubuntu'" stroke-linecap="butt">
      <text xml:space="preserve" x="542" y="108" clip-path="url(#clipPath8)" stroke="none">out01</text>
      <rect x="521" y="210" clip-path="url(#clipPath9)" fill="rgb(39,76,114)" width="20" height="40" stroke="none" />
      <rect x="521" y="210" clip-path="url(#clipPath9)" fill="none" width="19" height="39" stroke="rgb(39,76,114)" />
      <text xml:space="preserve" x="542" y="228" clip-path="url(#clipPath10)" stroke="none">out02</text>
      <rect x="521" y="330" clip-path="url(#clipPath11)" fill="rgb(39,76,114)" width="20" height="40" stroke="none" />
      <rect x="521" y="330" clip-path="url(#clipPath11)" fill="none" width="19" height="39" stroke="rgb(39,76,114)" />
      <text xml:space="preserve" x="542" y="348" clip-path="url(#clipPath12)" stroke="none">out03</text>
      <rect x="521" y="150" clip-path="url(#clipPath13)" fill="rgb(194,239,255)" width="20" height="40" stroke="none" />
      <rect x="521" y="150" clip-path="url(#clipPath13)" fill="none" width="19" height="39" stroke="rgb(194,239,255)" />
      <text xml:space="preserve" x="542" y="168" clip-path="url(#clipPath14)" stroke="none">in01</text>
      <rect x="521" y="270" clip-path="url(#clipPath15)" fill="rgb(194,239,255)" width="20" height="40" stroke="none" />
      <rect x="521" y="270" clip-path="url(#clipPath15)" fill="none" width="19" height="39" stroke="rgb(194,239,255)" />
      <text xml:space="preserve" x="542" y="288" clip-path="url(#clipPath16)" stroke="none">in02</text>
      <rect x="521" y="390" clip-path="url(#clipPath17)" fill="rgb(194,239,255)" width="20" height="40" stroke="none" />
      <rect x="521" y="390" clip-path="url(#clipPath17)" fill="none" width="19" height="39" stroke="rgb(194,239,255)" />
      <text xml:space="preserve" x="542" y="408" clip-path="url(#clipPath18)" stroke="none">in03</text>
      <line clip-path="url(#clipPath19)" fill="none" x1="521" x2="62" y1="90" y2="90" stroke="rgb(136,136,136)" stroke-width="2.1" />
      <text x="185" y="87" clip-path="url(#clipPath20)" stroke="none" stroke-width="2.1" xml:space="preserve">oeEnterPinCode("1357")</text>
      <line clip-path="url(#clipPath21)" fill="none" x1="69" x2="62" y1="87" y2="90" stroke="rgb(136,136,136)" stroke-width="2.1" />
      <line clip-path="url(#clipPath21)" fill="none" x1="62" x2="69" y1="90" y2="93" stroke="rgb(136,136,136)" stroke-width="2.1" />
      <line clip-path="url(#clipPath19)" fill="none" x1="521" x2="62" y1="210" y2="210" stroke="rgb(136,136,136)" stroke-width="2.1" />
      <text x="178" y="207" clip-path="url(#clipPath22)" stroke="none" stroke-width="2.1" xml:space="preserve">oeChooseCurrency("USD")</text>
      <line clip-path="url(#clipPath23)" fill="none" x1="69" x2="62" y1="207" y2="210" stroke="rgb(136,136,136)" stroke-width="2.1" />
      <line clip-path="url(#clipPath23)" fill="none" x1="62" x2="69" y1="210" y2="213" stroke="rgb(136,136,136)" stroke-width="2.1" />
      <line clip-path="url(#clipPath19)" fill="none" x1="521" x2="62" y1="330" y2="330" stroke="rgb(136,136,136)" stroke-width="2.1" />
      <text x="243" y="327" clip-path="url(#clipPath24)" stroke="none" stroke-width="2.1" xml:space="preserve">oeLogout()</text>
      <line clip-path="url(#clipPath25)" fill="none" x1="69" x2="62" y1="327" y2="330" stroke="rgb(136,136,136)" stroke-width="2.1" />
      <line clip-path="url(#clipPath25)" fill="none" x1="62" x2="69" y1="330" y2="333" stroke="rgb(136,136,136)" stroke-width="2.1" />
    </g>
    <g stroke-linecap="butt" font-size="19" fill="rgb(136,136,136)" font-family="'Ubuntu'" stroke-dasharray="5,5" stroke="rgb(136,136,136)" stroke-width="2.1">
      <line clip-path="url(#clipPath19)" fill="none" x1="521" x2="62" y1="150" y2="150" />
      <text x="96" y="147" clip-path="url(#clipPath26)" fill="black" stroke="none" xml:space="preserve">ieMessage(The pin code is correct. Welcome!)</text>
      <line clip-path="url(#clipPath27)" fill="none" x1="514" x2="521" y1="153" y2="150" stroke-dasharray="none" />
      <line clip-path="url(#clipPath27)" fill="none" x1="521" x2="514" y1="150" y2="147" stroke-dasharray="none" />
      <line clip-path="url(#clipPath19)" fill="none" x1="521" x2="62" y1="270" y2="270" />
      <text x="156" y="267" clip-path="url(#clipPath28)" fill="black" stroke="none" xml:space="preserve">ieMessage(Your balance is 40$.)</text>
      <line clip-path="url(#clipPath29)" fill="none" x1="514" x2="521" y1="273" y2="270" stroke-dasharray="none" />
      <line clip-path="url(#clipPath29)" fill="none" x1="521" x2="514" y1="270" y2="267" stroke-dasharray="none" />
      <line clip-path="url(#clipPath19)" fill="none" x1="521" x2="62" y1="390" y2="390" />
      <text x="90" y="387" clip-path="url(#clipPath30)" fill="black" stroke="none" xml:space="preserve">ieMessage(You are logged out. Take your card!)</text>
      <line clip-path="url(#clipPath31)" fill="none" x1="514" x2="521" y1="393" y2="390" stroke-dasharray="none" />
      <line clip-path="url(#clipPath31)" fill="none" x1="521" x2="514" y1="390" y2="387" stroke-dasharray="none" />
    </g>
  </g>
</svg>

