<?xml version="1.0" encoding="UTF-8"?>
<svg xmlns="http://www.w3.org/2000/svg" xmlns:xlink="http://www.w3.org/1999/xlink" stroke-dasharray="none" shape-rendering="auto" font-family="'Dialog'" width="719" text-rendering="auto" fill-opacity="1" contentScriptType="text/ecmascript" color-interpolation="auto" color-rendering="auto" preserveAspectRatio="xMidYMid meet" font-size="12" viewBox="0 0 719 730" fill="black" stroke="black" image-rendering="auto" stroke-miterlimit="10" zoomAndPan="magnify" version="1.0" stroke-linecap="square" stroke-linejoin="miter" contentStyleType="text/css" font-style="normal" height="730" stroke-width="1" stroke-dashoffset="0" font-weight="normal" stroke-opacity="1">
  <!--Generated by the Batik Graphics2D SVG Generator-->
  <defs id="genericDefs" />
  <g>
    <defs id="defs1">
      <clipPath clipPathUnits="userSpaceOnUse" id="clipPath1">
        <path d="M9 9 L81 9 L81 41 L9 41 L9 9 Z" />
      </clipPath>
      <clipPath clipPathUnits="userSpaceOnUse" id="clipPath2">
        <path d="M9 9 L86 9 L86 41 L9 41 L9 9 Z" />
      </clipPath>
      <clipPath clipPathUnits="userSpaceOnUse" id="clipPath3">
        <path d="M39 39 L51 39 L51 721 L39 721 L39 39 Z" />
      </clipPath>
      <clipPath clipPathUnits="userSpaceOnUse" id="clipPath4">
        <path d="M558 9 L710 9 L710 61 L558 61 L558 9 Z" />
      </clipPath>
      <clipPath clipPathUnits="userSpaceOnUse" id="clipPath5">
        <path d="M558 9 L714 9 L714 61 L558 61 L558 9 Z" />
      </clipPath>
      <clipPath clipPathUnits="userSpaceOnUse" id="clipPath6">
        <path d="M628 59 L640 59 L640 721 L628 721 L628 59 Z" />
      </clipPath>
      <clipPath clipPathUnits="userSpaceOnUse" id="clipPath7">
        <path d="M623 89 L645 89 L645 131 L623 131 L623 89 Z" />
      </clipPath>
      <clipPath clipPathUnits="userSpaceOnUse" id="clipPath8">
        <path d="M644 89 L703 89 L703 113 L644 113 L644 89 Z" />
      </clipPath>
      <clipPath clipPathUnits="userSpaceOnUse" id="clipPath9">
        <path d="M623 209 L645 209 L645 251 L623 251 L623 209 Z" />
      </clipPath>
      <clipPath clipPathUnits="userSpaceOnUse" id="clipPath10">
        <path d="M644 209 L703 209 L703 233 L644 233 L644 209 Z" />
      </clipPath>
      <clipPath clipPathUnits="userSpaceOnUse" id="clipPath11">
        <path d="M623 329 L645 329 L645 371 L623 371 L623 329 Z" />
      </clipPath>
      <clipPath clipPathUnits="userSpaceOnUse" id="clipPath12">
        <path d="M644 329 L703 329 L703 353 L644 353 L644 329 Z" />
      </clipPath>
      <clipPath clipPathUnits="userSpaceOnUse" id="clipPath13">
        <path d="M623 509 L645 509 L645 551 L623 551 L623 509 Z" />
      </clipPath>
      <clipPath clipPathUnits="userSpaceOnUse" id="clipPath14">
        <path d="M644 509 L703 509 L703 533 L644 533 L644 509 Z" />
      </clipPath>
      <clipPath clipPathUnits="userSpaceOnUse" id="clipPath15">
        <path d="M623 149 L645 149 L645 191 L623 191 L623 149 Z" />
      </clipPath>
      <clipPath clipPathUnits="userSpaceOnUse" id="clipPath16">
        <path d="M644 149 L688 149 L688 173 L644 173 L644 149 Z" />
      </clipPath>
      <clipPath clipPathUnits="userSpaceOnUse" id="clipPath17">
        <path d="M623 269 L645 269 L645 311 L623 311 L623 269 Z" />
      </clipPath>
      <clipPath clipPathUnits="userSpaceOnUse" id="clipPath18">
        <path d="M644 269 L688 269 L688 293 L644 293 L644 269 Z" />
      </clipPath>
      <clipPath clipPathUnits="userSpaceOnUse" id="clipPath19">
        <path d="M623 389 L645 389 L645 431 L623 431 L623 389 Z" />
      </clipPath>
      <clipPath clipPathUnits="userSpaceOnUse" id="clipPath20">
        <path d="M644 389 L688 389 L688 413 L644 413 L644 389 Z" />
      </clipPath>
      <clipPath clipPathUnits="userSpaceOnUse" id="clipPath21">
        <path d="M623 449 L645 449 L645 491 L623 491 L623 449 Z" />
      </clipPath>
      <clipPath clipPathUnits="userSpaceOnUse" id="clipPath22">
        <path d="M644 449 L688 449 L688 473 L644 473 L644 449 Z" />
      </clipPath>
      <clipPath clipPathUnits="userSpaceOnUse" id="clipPath23">
        <path d="M623 569 L645 569 L645 611 L623 611 L623 569 Z" />
      </clipPath>
      <clipPath clipPathUnits="userSpaceOnUse" id="clipPath24">
        <path d="M644 569 L688 569 L688 593 L644 593 L644 569 Z" />
      </clipPath>
      <clipPath clipPathUnits="userSpaceOnUse" id="clipPath25">
        <path d="M623 629 L645 629 L645 671 L623 671 L623 629 Z" />
      </clipPath>
      <clipPath clipPathUnits="userSpaceOnUse" id="clipPath26">
        <path d="M644 629 L688 629 L688 653 L644 653 L644 629 Z" />
      </clipPath>
      <clipPath clipPathUnits="userSpaceOnUse" id="clipPath27">
        <path d="M-1 -1 L720 -1 L720 731 L-1 731 L-1 -1 Z" />
      </clipPath>
      <clipPath clipPathUnits="userSpaceOnUse" id="clipPath28">
        <path d="M226 68 L447 68 L447 92 L226 92 L226 68 Z" />
      </clipPath>
      <clipPath clipPathUnits="userSpaceOnUse" id="clipPath29">
        <path d="M43 85 L55 85 L55 96 L43 96 L43 85 Z" />
      </clipPath>
      <clipPath clipPathUnits="userSpaceOnUse" id="clipPath30">
        <path d="M219 188 L453 188 L453 212 L219 212 L219 188 Z" />
      </clipPath>
      <clipPath clipPathUnits="userSpaceOnUse" id="clipPath31">
        <path d="M43 205 L55 205 L55 216 L43 216 L43 205 Z" />
      </clipPath>
      <clipPath clipPathUnits="userSpaceOnUse" id="clipPath32">
        <path d="M181 308 L492 308 L492 332 L181 332 L181 308 Z" />
      </clipPath>
      <clipPath clipPathUnits="userSpaceOnUse" id="clipPath33">
        <path d="M43 325 L55 325 L55 336 L43 336 L43 325 Z" />
      </clipPath>
      <clipPath clipPathUnits="userSpaceOnUse" id="clipPath34">
        <path d="M284 488 L388 488 L388 512 L284 512 L284 488 Z" />
      </clipPath>
      <clipPath clipPathUnits="userSpaceOnUse" id="clipPath35">
        <path d="M43 505 L55 505 L55 516 L43 516 L43 505 Z" />
      </clipPath>
      <clipPath clipPathUnits="userSpaceOnUse" id="clipPath36">
        <path d="M137 128 L535 128 L535 152 L137 152 L137 128 Z" />
      </clipPath>
      <clipPath clipPathUnits="userSpaceOnUse" id="clipPath37">
        <path d="M615 145 L627 145 L627 156 L615 156 L615 145 Z" />
      </clipPath>
      <clipPath clipPathUnits="userSpaceOnUse" id="clipPath38">
        <path d="M67 248 L606 248 L606 272 L67 272 L67 248 Z" />
      </clipPath>
      <clipPath clipPathUnits="userSpaceOnUse" id="clipPath39">
        <path d="M615 265 L627 265 L627 276 L615 276 L615 265 Z" />
      </clipPath>
      <clipPath clipPathUnits="userSpaceOnUse" id="clipPath40">
        <path d="M43 368 L629 368 L629 392 L43 392 L43 368 Z" />
      </clipPath>
      <clipPath clipPathUnits="userSpaceOnUse" id="clipPath41">
        <path d="M615 385 L627 385 L627 396 L615 396 L615 385 Z" />
      </clipPath>
      <clipPath clipPathUnits="userSpaceOnUse" id="clipPath42">
        <path d="M246 428 L427 428 L427 452 L246 452 L246 428 Z" />
      </clipPath>
      <clipPath clipPathUnits="userSpaceOnUse" id="clipPath43">
        <path d="M615 445 L627 445 L627 456 L615 456 L615 445 Z" />
      </clipPath>
      <clipPath clipPathUnits="userSpaceOnUse" id="clipPath44">
        <path d="M131 548 L541 548 L541 572 L131 572 L131 548 Z" />
      </clipPath>
      <clipPath clipPathUnits="userSpaceOnUse" id="clipPath45">
        <path d="M615 565 L627 565 L627 576 L615 576 L615 565 Z" />
      </clipPath>
      <clipPath clipPathUnits="userSpaceOnUse" id="clipPath46">
        <path d="M256 608 L417 608 L417 632 L256 632 L256 608 Z" />
      </clipPath>
      <clipPath clipPathUnits="userSpaceOnUse" id="clipPath47">
        <path d="M615 625 L627 625 L627 636 L615 636 L615 625 Z" />
      </clipPath>
    </defs>
    <g fill="rgb(238,201,142)" font-family="'Ubuntu'" stroke-linejoin="round" stroke="rgb(238,201,142)" stroke-width="0" stroke-miterlimit="0">
      <rect x="10" y="10" clip-path="url(#clipPath1)" width="70" height="30" stroke="none" />
    </g>
    <g stroke-width="0.1" font-family="'Ubuntu'" stroke-linecap="butt">
      <rect x="10" y="10" clip-path="url(#clipPath1)" fill="none" width="69" height="29" />
      <text x="14" font-size="19" y="32" clip-path="url(#clipPath2)" stroke="none" xml:space="preserve">System</text>
      <line clip-path="url(#clipPath3)" fill="none" x1="44" x2="44" y1="40" y2="720" stroke-dasharray="10,10" stroke-width="1.1" />
    </g>
    <g stroke-linecap="butt" fill="rgb(255,245,181)" font-family="'Ubuntu'" stroke-dasharray="10,10" stroke="rgb(255,245,181)" stroke-width="1.1">
      <rect x="559" y="10" clip-path="url(#clipPath4)" width="150" height="50" stroke="none" />
    </g>
    <g stroke-width="0.1" font-family="'Ubuntu'" stroke-linecap="butt">
      <rect x="559" y="10" clip-path="url(#clipPath4)" fill="none" width="149" height="49" />
      <text x="609" font-size="19" y="31" clip-path="url(#clipPath5)" stroke="none" xml:space="preserve">user1</text>
      <text x="596" font-size="19" y="53" clip-path="url(#clipPath5)" stroke="none" xml:space="preserve">: actUser</text>
      <line clip-path="url(#clipPath6)" fill="none" x1="633" x2="633" y1="60" y2="720" stroke-dasharray="10,10" stroke-width="1.1" />
    </g>
    <g stroke-linecap="butt" fill="rgb(39,76,114)" font-family="'Ubuntu'" stroke-dasharray="10,10" stroke="rgb(39,76,114)" stroke-width="1.1">
      <rect x="624" y="90" clip-path="url(#clipPath7)" width="20" height="40" stroke="none" />
      <rect x="624" y="90" clip-path="url(#clipPath7)" fill="none" width="19" stroke-dasharray="none" height="39" stroke-width="0.1" />
    </g>
    <g stroke-width="0.1" font-size="19" font-family="'Ubuntu'" stroke-linecap="butt">
      <text xml:space="preserve" x="645" y="108" clip-path="url(#clipPath8)" stroke="none">out01</text>
      <rect x="624" y="210" clip-path="url(#clipPath9)" fill="rgb(39,76,114)" width="20" height="40" stroke="none" />
      <rect x="624" y="210" clip-path="url(#clipPath9)" fill="none" width="19" height="39" stroke="rgb(39,76,114)" />
      <text xml:space="preserve" x="645" y="228" clip-path="url(#clipPath10)" stroke="none">out02</text>
      <rect x="624" y="330" clip-path="url(#clipPath11)" fill="rgb(39,76,114)" width="20" height="40" stroke="none" />
      <rect x="624" y="330" clip-path="url(#clipPath11)" fill="none" width="19" height="39" stroke="rgb(39,76,114)" />
      <text xml:space="preserve" x="645" y="348" clip-path="url(#clipPath12)" stroke="none">out03</text>
      <rect x="624" y="510" clip-path="url(#clipPath13)" fill="rgb(39,76,114)" width="20" height="40" stroke="none" />
      <rect x="624" y="510" clip-path="url(#clipPath13)" fill="none" width="19" height="39" stroke="rgb(39,76,114)" />
      <text xml:space="preserve" x="645" y="528" clip-path="url(#clipPath14)" stroke="none">out04</text>
      <rect x="624" y="150" clip-path="url(#clipPath15)" fill="rgb(194,239,255)" width="20" height="40" stroke="none" />
      <rect x="624" y="150" clip-path="url(#clipPath15)" fill="none" width="19" height="39" stroke="rgb(194,239,255)" />
      <text xml:space="preserve" x="645" y="168" clip-path="url(#clipPath16)" stroke="none">in01</text>
      <rect x="624" y="270" clip-path="url(#clipPath17)" fill="rgb(194,239,255)" width="20" height="40" stroke="none" />
      <rect x="624" y="270" clip-path="url(#clipPath17)" fill="none" width="19" height="39" stroke="rgb(194,239,255)" />
      <text xml:space="preserve" x="645" y="288" clip-path="url(#clipPath18)" stroke="none">in02</text>
      <rect x="624" y="390" clip-path="url(#clipPath19)" fill="rgb(194,239,255)" width="20" height="40" stroke="none" />
      <rect x="624" y="390" clip-path="url(#clipPath19)" fill="none" width="19" height="39" stroke="rgb(194,239,255)" />
      <text xml:space="preserve" x="645" y="408" clip-path="url(#clipPath20)" stroke="none">in03</text>
      <rect x="624" y="450" clip-path="url(#clipPath21)" fill="rgb(194,239,255)" width="20" height="40" stroke="none" />
      <rect x="624" y="450" clip-path="url(#clipPath21)" fill="none" width="19" height="39" stroke="rgb(194,239,255)" />
      <text xml:space="preserve" x="645" y="468" clip-path="url(#clipPath22)" stroke="none">in04</text>
      <rect x="624" y="570" clip-path="url(#clipPath23)" fill="rgb(194,239,255)" width="20" height="40" stroke="none" />
      <rect x="624" y="570" clip-path="url(#clipPath23)" fill="none" width="19" height="39" stroke="rgb(194,239,255)" />
      <text xml:space="preserve" x="645" y="588" clip-path="url(#clipPath24)" stroke="none">in05</text>
      <rect x="624" y="630" clip-path="url(#clipPath25)" fill="rgb(194,239,255)" width="20" height="40" stroke="none" />
      <rect x="624" y="630" clip-path="url(#clipPath25)" fill="none" width="19" height="39" stroke="rgb(194,239,255)" />
      <text xml:space="preserve" x="645" y="648" clip-path="url(#clipPath26)" stroke="none">in06</text>
      <line clip-path="url(#clipPath27)" fill="none" x1="624" x2="45" y1="90" y2="90" stroke="rgb(136,136,136)" stroke-width="2.1" />
      <text x="227" y="87" clip-path="url(#clipPath28)" stroke="none" stroke-width="2.1" xml:space="preserve">oeEnterPinCode("2468")</text>
      <line clip-path="url(#clipPath29)" fill="none" x1="52" x2="45" y1="87" y2="90" stroke="rgb(136,136,136)" stroke-width="2.1" />
      <line clip-path="url(#clipPath29)" fill="none" x1="45" x2="52" y1="90" y2="93" stroke="rgb(136,136,136)" stroke-width="2.1" />
      <line clip-path="url(#clipPath27)" fill="none" x1="624" x2="45" y1="210" y2="210" stroke="rgb(136,136,136)" stroke-width="2.1" />
      <text x="220" y="207" clip-path="url(#clipPath30)" stroke="none" stroke-width="2.1" xml:space="preserve">oeChooseCurrency("USD")</text>
      <line clip-path="url(#clipPath31)" fill="none" x1="52" x2="45" y1="207" y2="210" stroke="rgb(136,136,136)" stroke-width="2.1" />
      <line clip-path="url(#clipPath31)" fill="none" x1="45" x2="52" y1="210" y2="213" stroke="rgb(136,136,136)" stroke-width="2.1" />
      <line clip-path="url(#clipPath27)" fill="none" x1="624" x2="45" y1="330" y2="330" stroke="rgb(136,136,136)" stroke-width="2.1" />
      <text x="182" y="327" clip-path="url(#clipPath32)" stroke="none" stroke-width="2.1" xml:space="preserve">oeEnterTheAmountOfMoney("35")</text>
      <line clip-path="url(#clipPath33)" fill="none" x1="52" x2="45" y1="327" y2="330" stroke="rgb(136,136,136)" stroke-width="2.1" />
      <line clip-path="url(#clipPath33)" fill="none" x1="45" x2="52" y1="330" y2="333" stroke="rgb(136,136,136)" stroke-width="2.1" />
      <line clip-path="url(#clipPath27)" fill="none" x1="624" x2="45" y1="510" y2="510" stroke="rgb(136,136,136)" stroke-width="2.1" />
      <text x="285" y="507" clip-path="url(#clipPath34)" stroke="none" stroke-width="2.1" xml:space="preserve">oeLogout()</text>
      <line clip-path="url(#clipPath35)" fill="none" x1="52" x2="45" y1="507" y2="510" stroke="rgb(136,136,136)" stroke-width="2.1" />
      <line clip-path="url(#clipPath35)" fill="none" x1="45" x2="52" y1="510" y2="513" stroke="rgb(136,136,136)" stroke-width="2.1" />
    </g>
    <g stroke-linecap="butt" font-size="19" fill="rgb(136,136,136)" font-family="'Ubuntu'" stroke-dasharray="5,5" stroke="rgb(136,136,136)" stroke-width="2.1">
      <line clip-path="url(#clipPath27)" fill="none" x1="624" x2="45" y1="150" y2="150" />
      <text x="138" y="147" clip-path="url(#clipPath36)" fill="black" stroke="none" xml:space="preserve">ieMessage(The pin code is correct. Welcome!)</text>
      <line clip-path="url(#clipPath37)" fill="none" x1="617" x2="624" y1="153" y2="150" stroke-dasharray="none" />
      <line clip-path="url(#clipPath37)" fill="none" x1="624" x2="617" y1="150" y2="147" stroke-dasharray="none" />
      <line clip-path="url(#clipPath27)" fill="none" x1="624" x2="45" y1="270" y2="270" />
      <text x="68" y="267" clip-path="url(#clipPath38)" fill="black" stroke="none" xml:space="preserve">ieMessage(Enter the amount of money you want to withdraw)</text>
      <line clip-path="url(#clipPath39)" fill="none" x1="617" x2="624" y1="273" y2="270" stroke-dasharray="none" />
      <line clip-path="url(#clipPath39)" fill="none" x1="624" x2="617" y1="270" y2="267" stroke-dasharray="none" />
      <line clip-path="url(#clipPath27)" fill="none" x1="624" x2="45" y1="390" y2="390" />
      <text x="44" y="387" clip-path="url(#clipPath40)" fill="black" stroke="none" xml:space="preserve">ieMessage(There is enough money on you card. Please take them...)</text>
      <line clip-path="url(#clipPath41)" fill="none" x1="617" x2="624" y1="393" y2="390" stroke-dasharray="none" />
      <line clip-path="url(#clipPath41)" fill="none" x1="624" x2="617" y1="390" y2="387" stroke-dasharray="none" />
      <line clip-path="url(#clipPath27)" fill="none" x1="624" x2="45" y1="450" y2="450" />
      <text x="247" y="447" clip-path="url(#clipPath42)" fill="black" stroke="none" xml:space="preserve">ieMoneyAppeared()</text>
      <line clip-path="url(#clipPath43)" fill="none" x1="617" x2="624" y1="453" y2="450" stroke-dasharray="none" />
      <line clip-path="url(#clipPath43)" fill="none" x1="624" x2="617" y1="450" y2="447" stroke-dasharray="none" />
      <line clip-path="url(#clipPath27)" fill="none" x1="624" x2="45" y1="570" y2="570" />
      <text x="132" y="567" clip-path="url(#clipPath44)" fill="black" stroke="none" xml:space="preserve">ieMessage(You are logged out. Take your card!)</text>
      <line clip-path="url(#clipPath45)" fill="none" x1="617" x2="624" y1="573" y2="570" stroke-dasharray="none" />
      <line clip-path="url(#clipPath45)" fill="none" x1="624" x2="617" y1="570" y2="567" stroke-dasharray="none" />
      <line clip-path="url(#clipPath27)" fill="none" x1="624" x2="45" y1="630" y2="630" />
      <text x="257" y="627" clip-path="url(#clipPath46)" fill="black" stroke="none" xml:space="preserve">ieCardAppeared()</text>
      <line clip-path="url(#clipPath47)" fill="none" x1="617" x2="624" y1="633" y2="630" stroke-dasharray="none" />
      <line clip-path="url(#clipPath47)" fill="none" x1="624" x2="617" y1="630" y2="627" stroke-dasharray="none" />
    </g>
  </g>
</svg>

